<?xml version="1.0" encoding="utf-8"?><svg xmlns="http://www.w3.org/2000/svg" xmlns:xlink="http://www.w3.org/1999/xlink"><symbol viewBox="0 0 14 20" id="addres" xmlns="http://www.w3.org/2000/svg"><title>Vector</title><desc>Created using Figma</desc><use xlink:href="#aa"/><defs><path id="aa" d="M11.38 1.953C10.078.651 8.507 0 6.667 0c-1.84 0-3.412.651-4.714 1.953C.651 3.255 0 4.826 0 6.667c0 .946.143 1.723.43 2.33l4.752 10.079a1.5 1.5 0 0 0 .606.676 1.676 1.676 0 0 0 1.758 0c.273-.164.48-.39.618-.676l4.74-10.079c.286-.607.43-1.384.43-2.33 0-1.84-.652-3.412-1.954-4.714zm-2.357 7.07A3.209 3.209 0 0 1 6.667 10c-.92 0-1.706-.326-2.357-.977a3.212 3.212 0 0 1-.977-2.356c0-.92.326-1.706.977-2.357a3.212 3.212 0 0 1 2.357-.977c.92 0 1.705.326 2.356.977A3.21 3.21 0 0 1 10 6.667a3.21 3.21 0 0 1-.977 2.356z"/></defs></symbol><symbol viewBox="0 0 16 16" id="call" xmlns="http://www.w3.org/2000/svg"><title>Vector</title><desc>Created using Figma</desc><use xlink:href="#ba"/><defs><path id="ba" d="M15.966 12.397c-.045-.136-.333-.337-.864-.602a26.173 26.173 0 0 0-.613-.341 58.136 58.136 0 0 1-.722-.398 24.117 24.117 0 0 1-.608-.352c-.03-.023-.125-.089-.284-.199a3.199 3.199 0 0 0-.403-.244.744.744 0 0 0-.324-.08c-.152 0-.341.108-.568.324-.227.216-.436.45-.625.705-.19.254-.39.488-.602.704-.212.216-.387.324-.523.324a.77.77 0 0 1-.256-.057 2.621 2.621 0 0 1-.233-.096 4.25 4.25 0 0 1-.272-.16c-.13-.079-.201-.123-.216-.13-1.038-.576-1.928-1.235-2.671-1.977-.742-.743-1.402-1.633-1.977-2.67a6.588 6.588 0 0 0-.131-.217 4.1 4.1 0 0 1-.16-.272 2.46 2.46 0 0 1-.096-.233.769.769 0 0 1-.057-.256c0-.136.108-.31.324-.523a6.8 6.8 0 0 1 .705-.602 5.53 5.53 0 0 0 .704-.625c.216-.227.324-.416.324-.568a.742.742 0 0 0-.08-.324 3.16 3.16 0 0 0-.244-.403 14.96 14.96 0 0 0-.198-.284 26.83 26.83 0 0 1-.353-.608 57.422 57.422 0 0 1-.398-.722c-.143-.265-.257-.47-.34-.613-.265-.53-.466-.819-.603-.864A.636.636 0 0 0 3.364 0a3.73 3.73 0 0 0-.801.114 4.5 4.5 0 0 0-.779.238c-.379.16-.78.621-1.204 1.386C.193 2.45 0 3.155 0 3.852a4.327 4.327 0 0 0 .182 1.25c.068.242.123.422.165.54.041.117.119.327.233.63.113.303.181.489.204.557.265.743.58 1.405.943 1.989.598.97 1.415 1.971 2.449 3.005 1.034 1.034 2.036 1.85 3.006 2.45.583.363 1.246.677 1.989.943.068.022.253.09.556.204.303.114.514.191.63.233.118.042.298.097.54.165.243.068.461.116.654.142.193.026.392.04.597.04.697 0 1.401-.193 2.114-.58.764-.424 1.226-.825 1.386-1.204.083-.19.162-.449.238-.779a3.74 3.74 0 0 0 .114-.8.635.635 0 0 0-.034-.24z"/></defs></symbol><symbol viewBox="0 0 17 13" id="mail" xmlns="http://www.w3.org/2000/svg"><title>Group</title><desc>Created using Figma</desc><use xlink:href="#ca"/><use xlink:href="#cb" transform="translate(0 4.192)"/><defs><path id="ca" d="M1.588 4.007c.21.148.84.586 1.893 1.316A447.3 447.3 0 0 1 5.9 7.008l.392.281c.2.145.366.262.499.351.132.09.292.19.48.3.188.111.365.194.53.25.167.055.321.082.463.082h.019c.14 0 .295-.027.46-.083a2.79 2.79 0 0 0 .532-.249c.187-.11.347-.21.48-.3.132-.089.298-.206.498-.35.2-.145.331-.24.393-.282l4.32-3.001c.45-.314.825-.692 1.127-1.136.302-.443.453-.907.453-1.394 0-.406-.147-.754-.44-1.043A1.427 1.427 0 0 0 15.069 0H1.478C1.002 0 .637.16.382.48.128.8 0 1.2 0 1.68c0 .388.17.808.508 1.26.338.453.698.809 1.08 1.067z"/><path id="cb" d="M15.622.803a191.62 191.62 0 0 0-4.598 3.186c-.35.258-.635.46-.854.604-.218.145-.51.293-.872.444a2.657 2.657 0 0 1-1.016.226h-.018c-.314 0-.653-.076-1.016-.226a5.273 5.273 0 0 1-.873-.444 21.856 21.856 0 0 1-.854-.604c-.83-.61-2.36-1.672-4.588-3.186A4.89 4.89 0 0 1 0 0v7.33c0 .407.145.755.434 1.044.29.29.637.434 1.043.434h13.591c.407 0 .754-.144 1.044-.434.29-.29.434-.637.434-1.043V0a5.092 5.092 0 0 1-.924.803z"/></defs></symbol><symbol viewBox="0 0 15 15" id="time" xmlns="http://www.w3.org/2000/svg"><title>Group</title><desc>Created using Figma</desc><use xlink:href="#da"/><use xlink:href="#db" transform="translate(5 3.75)"/><defs><path id="da" d="M13.994 3.735a7.468 7.468 0 0 0-2.73-2.73A7.337 7.337 0 0 0 7.5 0C6.14 0 4.885.335 3.736 1.006a7.467 7.467 0 0 0-2.73 2.73A7.336 7.336 0 0 0 0 7.5c0 1.36.335 2.615 1.006 3.765a7.468 7.468 0 0 0 2.73 2.73A7.337 7.337 0 0 0 7.5 15c1.36 0 2.616-.335 3.765-1.006a7.465 7.465 0 0 0 2.73-2.73A7.338 7.338 0 0 0 15 7.5c0-1.36-.335-2.616-1.006-3.765zM12.1 10.166a5.296 5.296 0 0 1-1.934 1.934 5.193 5.193 0 0 1-2.666.712 5.194 5.194 0 0 1-2.666-.712 5.297 5.297 0 0 1-1.933-1.934A5.192 5.192 0 0 1 2.188 7.5c0-.964.237-1.852.713-2.666A5.295 5.295 0 0 1 4.834 2.9 5.192 5.192 0 0 1 7.5 2.188c.964 0 1.852.237 2.666.712A5.295 5.295 0 0 1 12.1 4.834c.475.814.713 1.702.713 2.666s-.238 1.852-.713 2.666z"/><path id="db" d="M3.437 0h-.625a.305.305 0 0 0-.224.088.305.305 0 0 0-.088.224V3.75H.312a.305.305 0 0 0-.224.088.304.304 0 0 0-.088.225v.624c0 .092.03.167.088.225A.305.305 0 0 0 .312 5h3.126c.09 0 .166-.03.224-.088a.304.304 0 0 0 .088-.225V.312a.305.305 0 0 0-.088-.224A.304.304 0 0 0 3.437 0z"/></defs></symbol></svg>